<svg xmlns="http://www.w3.org/2000/svg" xmlns:xlink="http://www.w3.org/1999/xlink" width="265" zoomAndPan="magnify" viewBox="0 0 198.75 198.749995" height="265" preserveAspectRatio="xMidYMid meet" version="1.0"><defs><clipPath id="0c7d1b034d"><path d="M 0 0 L 198.5 0 L 198.5 198.5 L 0 198.5 Z M 0 0 " clip-rule="nonzero"/></clipPath><clipPath id="aa0c6b5e2b"><path d="M 20.5 50 L 178 50 L 178 148.6875 L 20.5 148.6875 Z M 20.5 50 " clip-rule="nonzero"/></clipPath></defs><g clip-path="url(#0c7d1b034d)"><path fill="#ffffff" d="M 0 0 L 198.75 0 L 198.75 198.75 L 0 198.75 Z M 0 0 " fill-opacity="1" fill-rule="nonzero"/><path fill="#ffffff" d="M 0 0 L 198.75 0 L 198.75 198.75 L 0 198.75 Z M 0 0 " fill-opacity="1" fill-rule="nonzero"/></g><g clip-path="url(#aa0c6b5e2b)"><path fill="#6a3f4c" d="M 139.8125 148.386719 C 139.421875 148.292969 138.839844 148.050781 138.519531 147.851562 C 138.199219 147.648438 137.496094 147.417969 136.957031 147.339844 C 136.417969 147.257812 135.183594 146.878906 134.21875 146.492188 C 133.253906 146.101562 131.121094 145.464844 129.476562 145.074219 C 127.832031 144.683594 126.363281 144.289062 126.21875 144.195312 C 126.070312 144.105469 125.738281 144 125.480469 143.960938 C 124.429688 143.8125 119.589844 142.140625 119.371094 141.855469 C 119.242188 141.683594 118.554688 141.5 117.84375 141.4375 C 117.132812 141.378906 116.128906 141.222656 115.609375 141.09375 C 115.09375 140.960938 113.824219 140.636719 112.789062 140.375 C 111.757812 140.109375 110.0625 139.636719 109.03125 139.320312 C 107.996094 139.003906 106.832031 138.683594 106.441406 138.605469 C 105.46875 138.417969 103.464844 137.429688 103.660156 137.230469 C 103.75 137.144531 103.46875 137.070312 103.035156 137.070312 C 102.257812 137.070312 100.285156 136.507812 97.984375 135.632812 C 96.554688 135.089844 92.246094 134.246094 90.886719 134.246094 C 89.394531 134.246094 87.578125 134.695312 85.894531 135.476562 C 84.492188 136.128906 84.226562 136.175781 82.253906 136.085938 C 80.914062 136.027344 79.835938 135.847656 79.351562 135.601562 C 78.925781 135.390625 78.078125 135.140625 77.46875 135.054688 C 76.863281 134.96875 75.832031 134.65625 75.183594 134.363281 C 74.53125 134.070312 73.527344 133.664062 72.949219 133.464844 C 71.757812 133.050781 70.292969 132.316406 69.746094 131.859375 C 69.523438 131.675781 68.746094 131.550781 67.816406 131.546875 C 65.324219 131.539062 57.183594 131.925781 56.152344 132.097656 C 55.636719 132.1875 53.152344 132.222656 50.628906 132.175781 C 41.601562 132.011719 40.363281 132.015625 37 132.195312 C 35.125 132.296875 32.90625 132.363281 32.066406 132.34375 C 30.269531 132.304688 30.582031 132.285156 28.070312 132.59375 C 25.527344 132.90625 22.582031 132.921875 22.03125 132.625 C 21.796875 132.5 21.414062 132.335938 21.179688 132.265625 C 20.882812 132.171875 20.796875 131.992188 20.898438 131.671875 C 20.976562 131.421875 20.910156 131.003906 20.75 130.746094 C 20.496094 130.34375 20.535156 130.210938 21.03125 129.792969 C 21.347656 129.527344 22 129.242188 22.484375 129.160156 C 23.671875 128.957031 23.972656 128.675781 24.5 127.300781 C 24.796875 126.519531 25.21875 125.945312 25.746094 125.585938 C 26.183594 125.289062 26.683594 124.707031 26.859375 124.296875 C 27.183594 123.523438 28.160156 122.476562 28.550781 122.476562 C 28.675781 122.476562 28.773438 122.164062 28.773438 121.78125 C 28.773438 121.398438 29.144531 120.472656 29.597656 119.722656 C 30.542969 118.148438 30.601562 117.714844 29.949219 117.0625 C 29.390625 116.503906 29.371094 116.164062 29.855469 115.53125 C 30.214844 115.0625 30.214844 115.0625 30.566406 115.53125 C 30.761719 115.789062 30.996094 116.113281 31.082031 116.25 C 31.363281 116.6875 33.296875 117.457031 35.238281 117.898438 C 36.859375 118.265625 38.457031 118.335938 46.871094 118.398438 C 52.234375 118.4375 56.78125 118.480469 56.976562 118.492188 C 57.167969 118.5 60.621094 118.433594 64.648438 118.339844 L 71.972656 118.167969 L 73.015625 118.78125 C 73.585938 119.117188 74.867188 120.128906 75.859375 121.035156 C 76.878906 121.960938 77.972656 122.746094 78.371094 122.832031 C 79.21875 123.019531 80.476562 124.027344 80.476562 124.519531 C 80.476562 125.183594 81.035156 124.683594 81.71875 123.402344 C 82.09375 122.699219 82.550781 121.957031 82.734375 121.75 C 82.914062 121.546875 83.0625 121.324219 83.0625 121.253906 C 83.0625 121.1875 83.574219 120.238281 84.199219 119.148438 C 84.828125 118.058594 85.519531 116.621094 85.742188 115.949219 C 85.964844 115.28125 86.378906 114.414062 86.660156 114.023438 C 88.179688 111.929688 88.574219 111.371094 89.761719 109.648438 C 90.476562 108.609375 91.257812 107.328125 91.5 106.796875 C 91.746094 106.265625 92.894531 104.414062 94.054688 102.679688 C 97.054688 98.199219 97.515625 97.425781 99.863281 92.890625 C 100.144531 92.347656 100.800781 91.335938 101.324219 90.640625 C 101.847656 89.945312 102.566406 88.800781 102.917969 88.09375 C 103.269531 87.390625 103.796875 86.496094 104.085938 86.105469 C 104.378906 85.71875 104.851562 84.921875 105.144531 84.339844 C 105.4375 83.757812 106.261719 82.394531 106.972656 81.3125 C 107.6875 80.230469 108.476562 78.808594 108.722656 78.15625 C 108.96875 77.503906 109.703125 76.113281 110.351562 75.066406 C 111 74.015625 111.65625 72.949219 111.808594 72.691406 C 111.960938 72.433594 112.402344 71.691406 112.792969 71.042969 C 113.183594 70.394531 113.652344 69.597656 113.835938 69.273438 C 114.019531 68.953125 114.496094 68.105469 114.898438 67.390625 C 115.300781 66.679688 115.777344 65.726562 115.960938 65.273438 C 116.140625 64.820312 116.746094 63.734375 117.300781 62.859375 C 117.859375 61.984375 118.3125 61.011719 118.3125 60.699219 C 118.3125 60.339844 118.585938 59.914062 119.058594 59.542969 L 119.800781 58.960938 L 118.652344 56.558594 C 117.417969 53.980469 116.671875 53.152344 114.566406 52.003906 C 112.703125 50.988281 110.359375 50.816406 107.726562 51.507812 C 106.894531 51.726562 105.574219 52 104.800781 52.109375 C 104.023438 52.222656 102.859375 52.4375 102.214844 52.589844 C 100.601562 52.972656 88.054688 52.957031 85.410156 52.574219 C 84.3125 52.414062 82.269531 52.199219 80.871094 52.097656 C 78.777344 51.941406 78.238281 51.820312 77.804688 51.414062 L 77.28125 50.917969 L 76.398438 52.433594 C 75.914062 53.261719 75.433594 53.976562 75.339844 54.015625 C 75.0625 54.132812 73.738281 56.609375 73.570312 57.328125 C 73.484375 57.683594 73.320312 57.976562 73.203125 57.976562 C 72.96875 57.976562 71.546875 60.496094 71.546875 60.917969 C 71.546875 61.066406 71.195312 61.601562 70.765625 62.113281 C 70.335938 62.621094 69.757812 63.519531 69.476562 64.109375 C 69.195312 64.699219 68.480469 65.746094 67.894531 66.4375 C 67.304688 67.128906 66.625 68.082031 66.382812 68.558594 C 66.140625 69.035156 65.765625 69.566406 65.554688 69.746094 C 65.34375 69.921875 65.003906 70.390625 64.800781 70.789062 C 64.597656 71.1875 63.929688 72.160156 63.3125 72.949219 C 62.691406 73.742188 61.960938 74.832031 61.6875 75.375 C 61.410156 75.914062 60.84375 76.75 60.425781 77.230469 C 60.007812 77.710938 59.253906 78.738281 58.753906 79.515625 C 58.253906 80.292969 57.367188 81.546875 56.789062 82.304688 C 56.210938 83.0625 55.511719 84.082031 55.238281 84.574219 C 54.511719 85.878906 51.917969 89.796875 51.417969 90.339844 C 51.183594 90.597656 50.980469 90.914062 50.964844 91.046875 C 50.949219 91.175781 50.921875 91.417969 50.902344 91.578125 C 50.882812 91.742188 50.714844 91.875 50.527344 91.875 C 50.34375 91.875 49.953125 92.21875 49.664062 92.640625 C 49.371094 93.058594 48.835938 93.75 48.472656 94.175781 C 48.109375 94.601562 47.808594 95.117188 47.808594 95.320312 C 47.808594 95.523438 47.546875 95.898438 47.222656 96.152344 C 46.898438 96.410156 46.296875 97.113281 45.886719 97.71875 C 45.476562 98.324219 44.738281 99.210938 44.25 99.691406 C 43.765625 100.171875 43.132812 101.015625 42.851562 101.570312 C 42.257812 102.734375 41.273438 104.03125 39.9375 105.390625 C 39.421875 105.917969 38.734375 106.785156 38.410156 107.3125 C 38.085938 107.839844 37.050781 108.96875 36.105469 109.816406 C 35.160156 110.667969 34.152344 111.664062 33.871094 112.035156 C 32.90625 113.296875 31.121094 114.96875 30.886719 114.824219 C 30.5 114.582031 30.625 114.035156 31.132812 113.761719 C 31.394531 113.621094 31.554688 113.421875 31.492188 113.316406 C 31.425781 113.214844 31.820312 112.773438 32.367188 112.339844 C 32.910156 111.910156 33.441406 111.417969 33.542969 111.253906 C 33.644531 111.085938 34.207031 110.621094 34.792969 110.21875 C 35.398438 109.800781 36.304688 108.808594 36.898438 107.917969 C 38.367188 105.703125 39.179688 104.671875 40.746094 103.035156 C 41.5 102.25 42.300781 101.242188 42.527344 100.800781 C 42.914062 100.046875 43.632812 99.101562 44.820312 97.789062 C 45.097656 97.484375 45.4375 97.054688 45.570312 96.832031 C 46.84375 94.722656 49.289062 91.359375 50.007812 90.726562 C 50.25 90.515625 51.484375 88.753906 52.753906 86.8125 C 54.027344 84.871094 55.363281 82.871094 55.726562 82.371094 C 56.089844 81.875 56.839844 80.761719 57.390625 79.902344 C 57.945312 79.042969 58.914062 77.796875 59.542969 77.132812 C 60.175781 76.472656 60.910156 75.507812 61.171875 74.992188 C 61.582031 74.183594 64.234375 70.078125 64.785156 69.394531 C 65.460938 68.554688 68.496094 64.082031 69.078125 63.066406 C 69.464844 62.386719 70.007812 61.523438 70.28125 61.140625 C 70.554688 60.757812 70.863281 60.183594 70.960938 59.859375 C 71.0625 59.535156 71.421875 58.855469 71.757812 58.351562 C 72.574219 57.125 72.664062 56.976562 72.824219 56.5625 C 72.898438 56.367188 73.171875 55.890625 73.429688 55.503906 C 73.6875 55.113281 74.140625 54.320312 74.441406 53.738281 C 75.417969 51.828125 76.535156 50.222656 76.988281 50.078125 C 77.234375 50 77.761719 50.136719 78.1875 50.398438 C 79.359375 51.101562 80.382812 51.335938 83.039062 51.492188 C 84.382812 51.570312 85.582031 51.695312 85.703125 51.773438 C 86.128906 52.035156 97.011719 52.109375 99.605469 51.867188 C 101.039062 51.730469 104.054688 51.246094 106.300781 50.789062 C 111.574219 49.714844 113.117188 49.785156 115.332031 51.207031 C 118.101562 52.984375 118.53125 53.574219 120.222656 57.941406 C 120.429688 58.480469 120.464844 58.464844 121.910156 57.117188 C 123.613281 55.53125 125.769531 54.019531 127.125 53.460938 C 130.84375 51.9375 130.496094 52.015625 133 52.1875 C 136.332031 52.414062 136.613281 52.464844 138.054688 53.117188 C 139.992188 53.992188 142.960938 55.074219 144.269531 55.378906 C 144.90625 55.527344 145.859375 55.84375 146.382812 56.082031 C 146.910156 56.316406 147.8125 56.582031 148.394531 56.671875 C 150.785156 57.035156 154.558594 58.101562 157.277344 59.183594 C 158.863281 59.816406 160.820312 60.429688 161.625 60.546875 C 162.425781 60.664062 163.664062 61.027344 164.375 61.355469 C 165.128906 61.703125 166.695312 62.109375 168.136719 62.324219 C 171.5625 62.84375 171.609375 62.859375 172.023438 63.492188 C 172.34375 63.976562 172.351562 64.207031 172.101562 65.078125 C 171.9375 65.636719 171.65625 66.332031 171.476562 66.617188 C 171.164062 67.109375 171.210938 67.179688 172.285156 67.859375 C 173.324219 68.523438 173.566406 68.578125 175.148438 68.515625 C 176.820312 68.453125 176.894531 68.472656 177.441406 69.15625 C 177.75 69.546875 178.003906 70.097656 178.003906 70.386719 C 178.007812 71.132812 177.332031 72.785156 176.644531 73.714844 C 175.871094 74.761719 175.1875 76.609375 175.1875 77.640625 C 175.1875 78.546875 174.652344 80.023438 174.175781 80.433594 C 174.007812 80.574219 173.734375 81.117188 173.566406 81.632812 C 173.253906 82.601562 170.671875 87.859375 170.101562 88.6875 C 169.925781 88.945312 169.78125 89.394531 169.78125 89.691406 C 169.78125 89.984375 169.675781 90.226562 169.546875 90.226562 C 169.417969 90.226562 169.3125 90.429688 169.3125 90.683594 C 169.3125 90.933594 169.222656 91.195312 169.117188 91.261719 C 169.007812 91.328125 168.625 92.101562 168.261719 92.980469 C 167.613281 94.558594 164.300781 101.542969 163.878906 102.230469 C 163.511719 102.824219 161.878906 106.265625 161.242188 107.789062 C 160.910156 108.578125 159.515625 111.492188 158.144531 114.261719 C 156.773438 117.03125 155.382812 119.882812 155.058594 120.59375 C 154.730469 121.304688 154.367188 122.070312 154.25 122.296875 C 154.132812 122.519531 154.035156 122.851562 154.035156 123.03125 C 154.035156 123.464844 153.15625 125.484375 151.457031 128.949219 C 150.695312 130.503906 149.886719 132.410156 149.664062 133.1875 C 149.441406 133.964844 149.011719 135.097656 148.710938 135.703125 C 148.410156 136.3125 147.929688 137.53125 147.644531 138.410156 C 147.359375 139.292969 146.832031 140.476562 146.476562 141.046875 C 146.121094 141.613281 145.757812 142.566406 145.671875 143.164062 C 145.585938 143.761719 145.402344 144.464844 145.261719 144.722656 C 145.121094 144.980469 145 145.300781 144.992188 145.429688 C 144.925781 146.453125 143.496094 147.769531 141.839844 148.335938 C 140.960938 148.632812 140.847656 148.636719 139.8125 148.386719 Z M 143.117188 146.714844 C 143.457031 146.429688 143.585938 145.515625 143.316406 145.246094 C 143.242188 145.171875 142.921875 145.222656 142.613281 145.363281 C 142.300781 145.507812 141.980469 145.554688 141.898438 145.472656 C 141.703125 145.277344 142.265625 143.933594 142.636719 143.714844 C 142.921875 143.546875 143.785156 142.027344 145.738281 138.253906 C 146.304688 137.152344 146.921875 136.167969 147.113281 136.0625 C 147.300781 135.957031 147.453125 135.671875 147.453125 135.429688 C 147.453125 135.1875 147.695312 134.691406 147.992188 134.324219 C 148.289062 133.957031 148.886719 132.863281 149.324219 131.894531 C 149.757812 130.921875 150.308594 129.847656 150.546875 129.503906 C 150.785156 129.160156 150.980469 128.679688 150.980469 128.4375 C 150.980469 128.195312 151.160156 127.734375 151.386719 127.414062 C 151.609375 127.097656 151.800781 126.492188 151.816406 126.070312 C 151.832031 125.648438 152.007812 125.117188 152.210938 124.890625 C 152.414062 124.664062 152.96875 123.476562 153.445312 122.25 C 153.921875 121.027344 154.511719 119.769531 154.761719 119.453125 C 155.007812 119.140625 155.210938 118.761719 155.210938 118.617188 C 155.210938 118.472656 155.664062 117.453125 156.21875 116.355469 C 156.769531 115.253906 157.523438 113.613281 157.894531 112.707031 C 158.261719 111.800781 158.957031 110.210938 159.441406 109.175781 C 159.925781 108.140625 160.449219 106.921875 160.609375 106.46875 C 161.347656 104.378906 161.597656 103.808594 162.136719 102.988281 C 162.453125 102.507812 163.128906 101.160156 163.636719 99.996094 C 164.144531 98.832031 164.832031 97.398438 165.167969 96.816406 C 165.503906 96.234375 165.78125 95.464844 165.78125 95.105469 C 165.785156 94.746094 166.050781 94.035156 166.371094 93.523438 C 166.695312 93.007812 166.960938 92.433594 166.960938 92.238281 C 166.960938 92.046875 167.164062 91.78125 167.410156 91.648438 C 167.660156 91.515625 167.992188 91.007812 168.148438 90.523438 C 168.304688 90.035156 168.636719 89.347656 168.886719 88.992188 C 169.800781 87.6875 171.257812 84.230469 171.324219 83.207031 C 171.367188 82.59375 171.582031 81.960938 171.847656 81.664062 C 172.414062 81.039062 173.453125 78.285156 173.773438 76.574219 C 173.90625 75.859375 174.214844 75.007812 174.457031 74.675781 C 175.222656 73.632812 176.359375 71.195312 176.359375 70.605469 C 176.359375 69.792969 175.976562 69.585938 174.191406 69.449219 C 172.378906 69.3125 172.339844 69.492188 173.890625 70.859375 C 174.660156 71.539062 174.734375 71.707031 174.589844 72.390625 C 174.5 72.8125 174.117188 73.742188 173.746094 74.453125 C 172.546875 76.730469 170.480469 81.347656 170.367188 81.996094 C 170.21875 82.835938 169.710938 83.914062 168.597656 85.753906 C 168.089844 86.59375 167.671875 87.414062 167.667969 87.570312 C 167.667969 87.730469 167.453125 88.207031 167.195312 88.632812 C 166.9375 89.054688 166.726562 89.648438 166.726562 89.949219 C 166.726562 90.597656 166.3125 91.445312 165.867188 91.710938 C 165.691406 91.8125 165.550781 92.003906 165.550781 92.132812 C 165.550781 92.398438 162.671875 99.304688 162.03125 100.578125 C 161.496094 101.636719 160.980469 102.832031 160.605469 103.878906 C 160.441406 104.332031 159.890625 105.601562 159.378906 106.699219 C 158.871094 107.796875 158.285156 109.121094 158.082031 109.644531 C 157.878906 110.164062 157.492188 110.859375 157.226562 111.1875 C 156.695312 111.839844 156.1875 112.921875 154.8125 116.355469 C 154.320312 117.585938 153.257812 119.894531 152.449219 121.484375 C 151.640625 123.074219 150.980469 124.511719 150.980469 124.679688 C 150.980469 124.847656 150.722656 125.226562 150.40625 125.523438 C 150.089844 125.820312 149.542969 126.871094 149.191406 127.859375 C 148.839844 128.847656 148.476562 129.761719 148.382812 129.890625 C 148.292969 130.023438 148.136719 130.390625 148.039062 130.714844 C 147.9375 131.039062 147.386719 132.3125 146.808594 133.539062 C 146.230469 134.769531 145.5 136.332031 145.179688 137.007812 C 144.863281 137.6875 144.660156 138.335938 144.734375 138.453125 C 144.804688 138.570312 144.714844 138.792969 144.53125 138.945312 C 144.34375 139.097656 143.96875 139.65625 143.691406 140.1875 C 143.417969 140.71875 142.886719 141.4375 142.515625 141.785156 C 142.140625 142.132812 141.664062 142.855469 141.449219 143.394531 C 141.101562 144.265625 140.972656 144.371094 140.273438 144.371094 C 139.84375 144.371094 139.421875 144.257812 139.335938 144.117188 C 139.234375 143.953125 139.046875 143.992188 138.777344 144.234375 C 138.40625 144.570312 138.234375 144.558594 136.859375 144.097656 C 136.03125 143.820312 134.839844 143.375 134.21875 143.109375 C 133.59375 142.839844 132.792969 142.644531 132.441406 142.671875 C 132.039062 142.703125 131.195312 142.359375 130.195312 141.753906 C 128.769531 140.890625 128.46875 140.796875 127.503906 140.90625 C 126.433594 141.027344 124.0625 140.582031 122.660156 139.996094 C 122.273438 139.835938 121.375 139.53125 120.664062 139.320312 C 119.953125 139.109375 118.628906 138.71875 117.726562 138.449219 C 116.820312 138.179688 115.289062 137.65625 114.316406 137.285156 C 113.347656 136.917969 111.804688 136.460938 110.890625 136.273438 C 109.976562 136.089844 108.867188 135.714844 108.425781 135.445312 C 107.910156 135.132812 107.21875 134.953125 106.511719 134.953125 C 105.902344 134.953125 104.867188 134.742188 104.210938 134.484375 C 103.558594 134.222656 102.804688 134.011719 102.539062 134.011719 C 102.101562 134.011719 99.289062 132.914062 98.265625 132.34375 C 98.03125 132.210938 97.640625 132.167969 97.398438 132.246094 C 97.15625 132.324219 96.34375 132.183594 95.59375 131.941406 C 94.839844 131.695312 93.757812 131.480469 93.183594 131.457031 C 92.613281 131.4375 91.917969 131.273438 91.644531 131.09375 C 91.371094 130.914062 90.300781 130.5 89.265625 130.171875 C 87.492188 129.609375 87.316406 129.59375 86 129.902344 C 85.234375 130.078125 84.558594 130.175781 84.5 130.117188 C 84.441406 130.058594 84.542969 130.007812 84.726562 130.003906 C 84.972656 129.996094 84.957031 129.9375 84.664062 129.765625 C 84.402344 129.609375 84.082031 129.621094 83.699219 129.792969 C 83.214844 130.015625 83.039062 129.964844 82.476562 129.441406 C 82.113281 129.105469 81.617188 128.832031 81.367188 128.832031 C 81.121094 128.832031 80.976562 128.742188 81.042969 128.628906 C 81.113281 128.515625 81.449219 128.476562 81.789062 128.542969 C 82.351562 128.652344 82.394531 128.609375 82.234375 128.101562 C 82.140625 127.789062 81.929688 127.28125 81.769531 126.964844 C 81.480469 126.398438 81.472656 126.402344 80.988281 127.496094 C 80.722656 128.101562 80.402344 128.597656 80.28125 128.597656 C 80.164062 128.597656 79.386719 127.933594 78.5625 127.121094 C 77.734375 126.308594 76.421875 125.320312 75.640625 124.921875 C 74.863281 124.519531 73.753906 123.832031 73.175781 123.390625 C 71.828125 122.359375 68.859375 121.511719 66.609375 121.511719 C 64.832031 121.511719 60.804688 121.8125 59.910156 122.007812 C 59.394531 122.125 58.070312 122.230469 56.972656 122.246094 C 55.875 122.265625 54.609375 122.308594 54.15625 122.351562 C 53.703125 122.390625 51.640625 122.488281 49.574219 122.566406 C 47.503906 122.648438 45.074219 122.8125 44.167969 122.9375 C 43.261719 123.058594 39.296875 123.222656 35.355469 123.300781 C 27.53125 123.453125 27.597656 123.441406 27.597656 124.839844 C 27.597656 125.632812 28.492188 126.105469 29.367188 125.769531 C 29.746094 125.625 30.359375 125.625 31.070312 125.773438 C 32.054688 125.972656 35.074219 126.289062 35.707031 126.257812 C 36.738281 126.203125 48.640625 125.980469 49.515625 126 C 50.128906 126.011719 50.851562 125.90625 51.121094 125.761719 C 51.386719 125.617188 53.261719 125.40625 55.289062 125.292969 C 57.316406 125.175781 59.820312 124.976562 60.851562 124.851562 C 63.363281 124.542969 66.976562 124.464844 68.136719 124.691406 C 69.269531 124.914062 71.527344 125.757812 72.015625 126.144531 C 72.640625 126.636719 74.40625 127.457031 74.546875 127.320312 C 74.824219 127.039062 74.039062 126.027344 73.335938 125.765625 C 72.933594 125.613281 71.847656 125.128906 70.925781 124.6875 C 70.003906 124.25 68.984375 123.890625 68.664062 123.890625 C 68.339844 123.890625 67.933594 123.714844 67.757812 123.503906 C 67.480469 123.167969 67.0625 123.136719 64.679688 123.253906 C 63.164062 123.332031 61.714844 123.503906 61.464844 123.640625 C 61.210938 123.777344 60.300781 123.890625 59.445312 123.890625 C 58.589844 123.890625 57.445312 123.992188 56.902344 124.121094 C 54.75 124.625 36.777344 125.183594 32.417969 124.882812 C 30.691406 124.761719 29.539062 124.769531 29.445312 124.90625 C 29.242188 125.207031 28.730469 124.859375 28.921875 124.546875 C 29.027344 124.378906 29.988281 124.351562 31.921875 124.464844 C 34.496094 124.621094 36.988281 124.621094 42.523438 124.46875 C 45.226562 124.394531 52.5 123.921875 54.976562 123.664062 C 60.320312 123.097656 62.460938 122.914062 65.09375 122.796875 C 67.855469 122.667969 67.960938 122.683594 69.441406 123.359375 C 71.910156 124.480469 72.25 124.601562 72.25 124.355469 C 72.25 123.734375 73.160156 124.277344 74.53125 125.710938 C 75.648438 126.882812 76.183594 127.28125 76.570312 127.230469 C 77.273438 127.140625 78.363281 128.027344 78.363281 128.695312 C 78.363281 128.988281 78.550781 129.402344 78.785156 129.613281 C 79.214844 130.003906 82.453125 130.59375 82.84375 130.351562 C 82.964844 130.277344 83.183594 130.488281 83.332031 130.820312 C 83.644531 131.503906 84.132812 131.589844 84.71875 131.058594 C 85.296875 130.535156 86.429688 130.496094 86.535156 131 C 86.59375 131.289062 86.222656 131.601562 85.199219 132.117188 C 83.917969 132.765625 83.570312 132.832031 81.601562 132.828125 C 80.054688 132.820312 79.285156 132.71875 78.964844 132.472656 C 78.710938 132.285156 78.160156 132.128906 77.738281 132.128906 C 77.261719 132.128906 76.796875 131.941406 76.511719 131.636719 C 76.128906 131.222656 75.972656 131.191406 75.542969 131.421875 C 74.898438 131.765625 74.722656 131.601562 75.0625 130.96875 C 75.273438 130.570312 75.253906 130.445312 74.964844 130.332031 C 74.765625 130.257812 74.601562 129.992188 74.601562 129.75 C 74.601562 129.289062 74.945312 129.144531 75.171875 129.507812 C 75.238281 129.621094 75.617188 129.777344 76.007812 129.855469 C 76.550781 129.964844 76.714844 130.125 76.714844 130.546875 C 76.714844 131.203125 77.125 131.65625 77.710938 131.65625 C 78.179688 131.65625 78.597656 130.914062 78.203125 130.78125 C 78.066406 130.734375 77.757812 130.546875 77.515625 130.355469 C 77.082031 130.027344 77.085938 130 77.652344 129.558594 L 78.230469 129.105469 L 77.769531 128.554688 C 76.917969 127.550781 76.453125 127.375 76.648438 128.125 C 76.789062 128.660156 76.652344 128.703125 75.980469 128.34375 C 75.664062 128.175781 75.417969 128.171875 75.226562 128.328125 C 75.027344 128.496094 74.4375 128.257812 73.21875 127.523438 C 72.269531 126.949219 71.421875 126.476562 71.339844 126.476562 C 71.253906 126.476562 70.785156 126.261719 70.292969 126 C 69.804688 125.734375 68.695312 125.433594 67.832031 125.324219 C 65.683594 125.054688 59.996094 125.402344 56.859375 125.988281 C 55.4375 126.257812 52.371094 126.597656 50.042969 126.746094 C 45.5 127.035156 45.46875 127.035156 42.289062 126.925781 C 41.125 126.886719 38.902344 126.933594 37.351562 127.03125 C 35.433594 127.152344 34.003906 127.117188 32.886719 126.921875 C 31.980469 126.765625 30.554688 126.621094 29.714844 126.605469 C 28.875 126.585938 27.945312 126.492188 27.648438 126.390625 C 27.3125 126.273438 26.976562 126.3125 26.769531 126.484375 C 26.582031 126.640625 26.285156 126.710938 26.105469 126.640625 C 25.625 126.457031 25.101562 127.683594 25.222656 128.714844 C 25.238281 128.84375 25.945312 128.980469 26.792969 129.015625 C 28.441406 129.085938 28.707031 128.738281 27.222656 128.460938 C 26.628906 128.347656 26.460938 128.230469 26.640625 128.050781 C 26.820312 127.867188 27.132812 127.882812 27.722656 128.097656 C 28.179688 128.261719 28.847656 128.332031 29.210938 128.25 C 29.574219 128.171875 34.144531 128.128906 39.367188 128.15625 C 52.800781 128.222656 53.59375 128.203125 54.339844 127.789062 C 56.082031 126.824219 56.683594 126.644531 58.109375 126.664062 C 58.929688 126.671875 60.03125 126.527344 60.5625 126.339844 C 61.195312 126.113281 61.605469 126.078125 61.757812 126.230469 C 62.015625 126.488281 62.015625 126.488281 59.96875 127.058594 C 59.035156 127.320312 58.484375 127.363281 58.1875 127.203125 C 57.894531 127.046875 57.4375 127.082031 56.722656 127.320312 C 55.695312 127.660156 55.710938 127.660156 57.914062 127.542969 C 59.144531 127.476562 60.519531 127.367188 60.972656 127.296875 C 61.421875 127.230469 63.605469 127.0625 65.824219 126.929688 C 69.6875 126.695312 69.886719 126.707031 70.753906 127.171875 C 71.25 127.4375 71.789062 127.65625 71.953125 127.65625 C 72.117188 127.65625 72.25 127.855469 72.25 128.105469 C 72.25 128.59375 71.816406 128.59375 68.84375 128.105469 C 66.511719 127.722656 64.609375 127.800781 58.738281 128.523438 C 57.382812 128.691406 55.613281 128.75 46.398438 128.941406 C 42.714844 129.015625 39.066406 129.132812 38.292969 129.199219 C 36.894531 129.316406 36.257812 129.34375 27.835938 129.636719 C 23.867188 129.773438 21.898438 129.992188 21.558594 130.332031 C 21.234375 130.660156 21.742188 131.191406 22.253906 131.0625 C 22.554688 130.988281 23.0625 131.0625 23.386719 131.234375 C 24.003906 131.550781 25.761719 131.480469 29.480469 130.976562 C 31.375 130.722656 42.617188 130.140625 44.167969 130.214844 C 50.023438 130.507812 63.613281 130.1875 67.082031 129.679688 C 68.179688 129.519531 69.660156 129.402344 70.371094 129.425781 C 73.78125 129.523438 73.621094 129.484375 74.027344 130.269531 C 74.234375 130.671875 74.34375 131.238281 74.273438 131.523438 C 74.097656 132.21875 75.246094 133.078125 76.566406 133.242188 C 77.101562 133.308594 78.144531 133.5625 78.882812 133.804688 C 79.863281 134.128906 80.914062 134.246094 82.773438 134.246094 C 85.261719 134.246094 85.339844 134.230469 85.957031 133.585938 C 86.300781 133.222656 86.585938 132.804688 86.585938 132.660156 C 86.585938 132.238281 86.976562 132.09375 88.660156 131.882812 C 89.886719 131.726562 90.34375 131.757812 90.75 132.023438 C 91.425781 132.464844 93.015625 132.984375 94.332031 133.195312 C 94.910156 133.289062 95.976562 133.664062 96.699219 134.035156 C 97.425781 134.402344 98.578125 134.824219 99.269531 134.972656 C 99.957031 135.121094 100.953125 135.441406 101.484375 135.679688 C 102.015625 135.921875 102.765625 136.125 103.15625 136.128906 C 103.542969 136.132812 104.390625 136.378906 105.035156 136.679688 C 105.679688 136.980469 107.636719 137.566406 109.382812 137.980469 C 113.316406 138.921875 113.820312 139.050781 116.984375 139.910156 C 118.390625 140.289062 119.785156 140.601562 120.085938 140.601562 C 120.386719 140.601562 120.699219 140.707031 120.78125 140.839844 C 120.859375 140.96875 121.085938 141.074219 121.277344 141.074219 C 121.472656 141.074219 122.09375 141.285156 122.664062 141.546875 C 124.109375 142.203125 130.535156 143.800781 130.535156 143.5 C 130.535156 143.449219 130.773438 143.539062 131.0625 143.699219 C 131.351562 143.859375 131.75 144.011719 131.945312 144.039062 C 132.136719 144.066406 133.140625 144.402344 134.175781 144.78125 C 135.210938 145.160156 136.71875 145.617188 137.53125 145.792969 C 138.488281 146.003906 139.1875 146.3125 139.527344 146.679688 C 139.996094 147.183594 140.195312 147.230469 141.410156 147.121094 C 142.160156 147.054688 142.925781 146.875 143.117188 146.714844 Z M 87.351562 130.554688 C 87.574219 130.496094 87.945312 130.496094 88.171875 130.554688 C 88.398438 130.613281 88.214844 130.660156 87.761719 130.660156 C 87.308594 130.660156 87.125 130.613281 87.351562 130.554688 Z M 141.175781 142.425781 C 141.5 141.746094 141.839844 140.847656 141.925781 140.425781 C 142.035156 139.894531 142.21875 139.660156 142.519531 139.660156 C 143.070312 139.660156 143.691406 138.761719 144.398438 136.953125 C 144.703125 136.175781 145.089844 135.332031 145.261719 135.078125 C 145.433594 134.820312 145.574219 134.277344 145.574219 133.867188 C 145.574219 133.410156 145.714844 133.066406 145.9375 132.980469 C 146.136719 132.902344 146.511719 132.335938 146.769531 131.71875 C 147.023438 131.101562 147.382812 130.28125 147.5625 129.890625 C 148.996094 126.777344 149.164062 126.253906 148.835938 125.855469 C 148.558594 125.519531 148.558594 125.445312 148.847656 125.347656 C 149.839844 125.011719 152.105469 121.160156 153.929688 116.710938 C 155.335938 113.265625 156.636719 110.402344 156.976562 110 C 157.34375 109.558594 158.609375 107.023438 158.855469 106.234375 C 158.953125 105.914062 159.324219 105.011719 159.679688 104.234375 C 160.035156 103.457031 160.402344 102.554688 160.5 102.230469 C 160.59375 101.90625 161.148438 100.691406 161.726562 99.523438 C 162.304688 98.359375 163.132812 96.453125 163.558594 95.289062 C 163.988281 94.121094 164.617188 92.605469 164.953125 91.917969 C 165.289062 91.230469 165.730469 90.171875 165.933594 89.570312 C 166.140625 88.96875 166.863281 87.363281 167.546875 85.996094 C 169.109375 82.871094 170.140625 80.625 170.363281 79.867188 C 170.457031 79.542969 171.265625 77.78125 172.15625 75.949219 C 173.78125 72.601562 174.070312 71.699219 173.441406 71.941406 C 173.257812 72.011719 173.050781 71.917969 172.976562 71.730469 C 172.753906 71.144531 172.410156 71.363281 172.117188 72.277344 C 171.960938 72.761719 171.753906 73.265625 171.65625 73.394531 C 171.5625 73.523438 171.320312 74.160156 171.125 74.808594 C 170.199219 77.859375 169.117188 80.464844 167.601562 83.28125 C 166.773438 84.824219 166.027344 86.460938 165.882812 87.0625 C 165.679688 87.902344 165.222656 88.945312 163.308594 92.933594 C 162.5 94.617188 161.441406 97.050781 160.960938 98.347656 C 160.476562 99.640625 159.847656 100.964844 159.558594 101.289062 C 159.273438 101.613281 158.972656 102.058594 158.898438 102.277344 C 158.820312 102.496094 158.238281 103.394531 157.601562 104.277344 C 156.71875 105.496094 156.292969 106.398438 155.824219 108.039062 C 155.335938 109.753906 154.875 110.707031 153.59375 112.640625 C 152.707031 113.984375 151.78125 115.28125 151.539062 115.519531 C 151.015625 116.042969 150.285156 117.203125 149.457031 118.828125 C 148.851562 120.023438 148.28125 120.996094 147.320312 122.476562 C 147.027344 122.929688 146.503906 123.988281 146.15625 124.828125 C 145.808594 125.671875 145.335938 126.785156 145.105469 127.300781 C 144.875 127.820312 144.34375 129.25 143.929688 130.480469 C 143.515625 131.710938 143.042969 133.035156 142.882812 133.421875 C 142.414062 134.550781 141.53125 137.136719 141.394531 137.777344 C 141.328125 138.101562 140.925781 138.773438 140.5 139.269531 C 140.058594 139.789062 139.664062 140.570312 139.578125 141.09375 C 139.324219 142.578125 138.902344 142.21875 139.085938 140.675781 C 139.195312 139.746094 139.542969 138.796875 140.234375 137.5625 C 140.777344 136.585938 141.261719 135.679688 141.308594 135.546875 C 141.351562 135.414062 141.652344 134.632812 141.96875 133.8125 C 142.289062 132.988281 142.484375 132.253906 142.40625 132.171875 C 142.324219 132.09375 141.832031 132.527344 141.3125 133.136719 C 140.792969 133.746094 140.214844 134.246094 140.03125 134.246094 C 139.582031 134.246094 139.609375 134.039062 140.199219 133.070312 C 140.476562 132.617188 141.0625 131.199219 141.5 129.925781 C 141.9375 128.648438 142.550781 127.269531 142.863281 126.863281 C 143.171875 126.457031 143.757812 125.382812 144.164062 124.476562 C 144.570312 123.570312 145.042969 122.671875 145.21875 122.476562 C 145.394531 122.28125 145.894531 121.277344 146.332031 120.238281 C 146.769531 119.203125 147.464844 117.890625 147.878906 117.320312 C 148.289062 116.75 148.628906 116.160156 148.628906 116.007812 C 148.628906 115.851562 149.042969 115.132812 149.550781 114.40625 C 150.058594 113.683594 150.691406 112.589844 150.960938 111.984375 C 151.230469 111.375 151.980469 110.097656 152.628906 109.144531 C 153.28125 108.1875 153.910156 107.144531 154.035156 106.820312 C 154.21875 106.332031 154.738281 105.976562 154.738281 106.339844 C 154.738281 106.667969 154.03125 107.96875 153.050781 109.449219 C 152.433594 110.378906 151.75 111.597656 151.53125 112.15625 C 151.085938 113.289062 150.597656 114.132812 150 114.792969 C 149.78125 115.03125 149.472656 115.5625 149.308594 115.96875 C 149.144531 116.375 148.609375 117.3125 148.113281 118.050781 C 147.621094 118.785156 147.21875 119.488281 147.21875 119.605469 C 147.21875 119.96875 145.585938 123.382812 145.335938 123.535156 C 145.207031 123.617188 144.796875 124.300781 144.421875 125.058594 C 144.046875 125.8125 143.472656 126.894531 143.148438 127.457031 C 142.570312 128.457031 141.246094 132.109375 141.40625 132.269531 C 141.449219 132.3125 141.800781 132.125 142.183594 131.851562 C 142.742188 131.453125 143.066406 130.824219 143.789062 128.738281 C 144.285156 127.300781 144.996094 125.582031 145.367188 124.917969 C 145.738281 124.257812 146.042969 123.589844 146.042969 123.4375 C 146.042969 123.285156 146.441406 122.554688 146.929688 121.816406 C 147.417969 121.078125 148.277344 119.574219 148.847656 118.472656 C 149.839844 116.542969 150.769531 115.15625 152.285156 113.335938 C 153.332031 112.082031 154.363281 110.121094 154.964844 108.234375 C 155.613281 106.203125 156.1875 105.058594 157.351562 103.484375 C 158.675781 101.691406 159.753906 99.617188 160.871094 96.699219 C 161.417969 95.273438 162.085938 93.738281 162.355469 93.285156 C 163.726562 90.984375 165.597656 86.460938 165.175781 86.460938 C 165.003906 86.460938 162.023438 91.15625 162.023438 91.425781 C 162.023438 91.71875 160.230469 95.800781 159.398438 97.40625 C 158.6875 98.765625 156.40625 102.136719 155.429688 103.261719 C 154.964844 103.796875 154.179688 104.867188 153.683594 105.644531 C 153.183594 106.421875 152.585938 107.269531 152.355469 107.53125 C 151.707031 108.269531 150.257812 110.917969 148.046875 115.414062 C 146.933594 117.679688 145.871094 119.796875 145.691406 120.121094 C 145.507812 120.445312 144.820312 121.714844 144.164062 122.945312 C 143.507812 124.175781 142.683594 125.710938 142.332031 126.359375 C 141.675781 127.570312 141.242188 128.546875 140.441406 130.597656 C 140.191406 131.246094 139.773438 132.144531 139.511719 132.597656 C 139.253906 133.050781 138.964844 133.6875 138.875 134.011719 C 138.785156 134.335938 138.402344 134.988281 138.027344 135.46875 C 137.652344 135.945312 137.347656 136.484375 137.347656 136.660156 C 137.347656 136.839844 137.097656 137.207031 136.789062 137.472656 C 136.480469 137.742188 136.175781 138.105469 136.113281 138.28125 C 136.027344 138.511719 135.921875 138.53125 135.722656 138.34375 C 135.519531 138.152344 135.597656 137.832031 136.042969 137.050781 C 136.371094 136.480469 136.636719 135.828125 136.640625 135.601562 C 136.640625 135.375 136.78125 135.1875 136.949219 135.1875 C 137.367188 135.1875 138.097656 134.15625 138.84375 132.523438 C 139.183594 131.78125 139.460938 131.117188 139.460938 131.054688 C 139.460938 130.988281 140 129.757812 140.65625 128.320312 C 141.3125 126.882812 141.800781 125.511719 141.738281 125.277344 C 141.667969 125.015625 141.820312 124.722656 142.132812 124.519531 C 142.410156 124.335938 143.101562 123.300781 143.667969 122.214844 C 144.234375 121.128906 144.828125 120.082031 144.988281 119.886719 C 145.144531 119.691406 145.675781 118.632812 146.160156 117.53125 C 147.957031 113.476562 151.300781 107.390625 152.503906 105.996094 C 152.78125 105.671875 153.351562 104.859375 153.769531 104.191406 C 154.1875 103.519531 154.679688 102.847656 154.863281 102.695312 C 156.175781 101.605469 160.667969 93.652344 161.285156 91.324219 C 161.417969 90.828125 161.777344 90.085938 162.085938 89.675781 C 163.519531 87.777344 164.914062 85.089844 165.660156 82.789062 C 165.832031 82.261719 166.28125 81.203125 166.660156 80.4375 C 167.039062 79.671875 167.488281 78.671875 167.660156 78.21875 C 167.832031 77.765625 168.484375 76.308594 169.109375 74.980469 C 169.734375 73.652344 170.25 72.515625 170.25 72.457031 C 170.25 72.394531 170.570312 71.640625 170.964844 70.78125 C 171.769531 69.023438 171.777344 68.484375 171.007812 68.375 C 170.339844 68.28125 170.039062 68.953125 170.578125 69.34375 C 170.921875 69.597656 170.78125 70.003906 169.171875 73.277344 C 168.1875 75.28125 167.148438 77.242188 166.863281 77.632812 C 166.265625 78.445312 165.222656 80.433594 164.96875 81.242188 C 164.875 81.546875 164.488281 82.253906 164.109375 82.820312 C 163.730469 83.382812 163.21875 84.449219 162.976562 85.191406 C 162.730469 85.929688 162.371094 86.628906 162.171875 86.738281 C 161.835938 86.925781 161.203125 88.144531 159.882812 91.148438 C 159.574219 91.851562 158.976562 92.855469 158.558594 93.386719 C 158.140625 93.914062 157.796875 94.421875 157.796875 94.511719 C 157.792969 94.605469 157.476562 95.183594 157.089844 95.796875 C 156.699219 96.40625 156.382812 97.035156 156.382812 97.191406 C 156.382812 97.847656 153.328125 102.445312 152.289062 103.347656 C 151.957031 103.636719 151.683594 104.019531 151.683594 104.195312 C 151.683594 104.367188 151.460938 104.714844 151.1875 104.960938 C 150.914062 105.207031 150.59375 105.621094 150.476562 105.878906 C 150.359375 106.136719 149.976562 106.800781 149.621094 107.347656 C 148.5 109.089844 146.984375 111.628906 146.984375 111.757812 C 146.984375 111.824219 147.136719 111.882812 147.328125 111.882812 C 147.609375 111.882812 147.59375 112.019531 147.234375 112.648438 C 146.992188 113.066406 146.722656 113.65625 146.632812 113.953125 C 146.546875 114.253906 146.097656 115.152344 145.636719 115.957031 C 145.175781 116.757812 144.585938 117.839844 144.328125 118.355469 C 144.074219 118.875 143.558594 119.667969 143.191406 120.117188 C 142.820312 120.566406 142.519531 121.03125 142.519531 121.152344 C 142.519531 121.269531 142.148438 121.925781 141.695312 122.609375 C 141.242188 123.292969 140.871094 124.035156 140.871094 124.257812 C 140.871094 124.484375 140.628906 124.996094 140.328125 125.394531 C 139.71875 126.207031 138.757812 128.132812 138.757812 128.535156 C 138.757812 128.679688 138.507812 129.09375 138.203125 129.460938 C 137.632812 130.148438 135.9375 133.511719 135.9375 133.957031 C 135.9375 134.097656 136.109375 134.246094 136.316406 134.289062 C 136.617188 134.347656 136.492188 134.632812 135.730469 135.652344 C 135.136719 136.441406 134.761719 137.195312 134.761719 137.59375 C 134.761719 137.953125 134.734375 138.246094 134.703125 138.246094 C 134.671875 138.246094 133.585938 138.042969 132.292969 137.789062 C 128.796875 137.109375 126.671875 136.492188 125.878906 135.925781 C 125.488281 135.648438 124.816406 135.421875 124.386719 135.421875 C 121.511719 135.414062 116.324219 134.386719 114.082031 133.378906 C 112.628906 132.726562 109.421875 131.695312 109.28125 131.835938 C 109.011719 132.105469 109.160156 132.324219 109.921875 132.773438 C 110.84375 133.320312 111.714844 133.546875 113.15625 133.625 C 113.789062 133.65625 114.511719 133.878906 114.917969 134.171875 C 115.296875 134.441406 116.402344 134.894531 117.371094 135.179688 C 118.339844 135.464844 119.5625 135.839844 120.089844 136.011719 C 120.613281 136.1875 122.023438 136.4375 123.226562 136.574219 C 124.425781 136.707031 125.53125 136.914062 125.679688 137.03125 C 125.828125 137.148438 126.53125 137.429688 127.242188 137.65625 C 127.953125 137.886719 129.074219 138.316406 129.738281 138.613281 C 130.796875 139.089844 133.109375 139.660156 133.984375 139.660156 C 134.152344 139.660156 134.292969 139.503906 134.292969 139.3125 C 134.292969 138.832031 135.566406 139.71875 136.738281 141.015625 C 137.234375 141.566406 137.765625 142.015625 137.921875 142.015625 C 138.082031 142.015625 138.625 142.378906 139.128906 142.828125 C 139.636719 143.277344 140.171875 143.648438 140.316406 143.652344 C 140.464844 143.65625 140.847656 143.105469 141.175781 142.425781 Z M 143.222656 134.800781 C 143.222656 134.65625 143.90625 133.144531 145.234375 130.363281 C 145.542969 129.714844 146.078125 128.445312 146.421875 127.539062 C 147.460938 124.808594 151.140625 117.136719 151.519531 116.898438 C 152.042969 116.578125 151.773438 117.273438 150.058594 120.730469 C 149.039062 122.792969 147.917969 125.21875 147.574219 126.125 C 147.226562 127.03125 146.679688 128.460938 146.359375 129.304688 C 146.035156 130.144531 145.535156 131.257812 145.242188 131.773438 C 144.953125 132.292969 144.527344 133.21875 144.300781 133.835938 C 144.074219 134.449219 143.738281 134.953125 143.554688 134.953125 C 143.371094 134.953125 143.222656 134.882812 143.222656 134.800781 Z M 138.035156 143.015625 C 138.027344 142.917969 137.335938 142.339844 136.503906 141.726562 C 135.246094 140.808594 134.867188 140.640625 134.289062 140.757812 C 133.871094 140.839844 133.445312 140.777344 133.234375 140.601562 C 133.039062 140.4375 132.394531 140.214844 131.808594 140.105469 C 130.671875 139.894531 126.734375 138.476562 125.363281 137.785156 C 124.910156 137.554688 123.660156 137.292969 122.585938 137.203125 C 121.515625 137.113281 120.261719 136.878906 119.804688 136.6875 C 119.347656 136.5 118.375 136.234375 117.644531 136.101562 C 116.914062 135.96875 115.679688 135.539062 114.902344 135.144531 C 113.636719 134.503906 113.289062 134.433594 111.507812 134.464844 C 110.414062 134.484375 109.46875 134.550781 109.410156 134.613281 C 109.140625 134.878906 109.867188 135.21875 111.171875 135.429688 C 111.945312 135.550781 113.433594 136.027344 114.480469 136.480469 C 115.527344 136.933594 116.582031 137.308594 116.820312 137.308594 C 117.058594 137.3125 117.925781 137.523438 118.742188 137.78125 C 119.613281 138.054688 120.894531 138.25 121.820312 138.25 C 123.113281 138.25 123.488281 138.335938 123.835938 138.71875 C 124.34375 139.28125 125.308594 139.5625 127.78125 139.863281 C 129.234375 140.042969 129.734375 140.210938 130.191406 140.667969 C 130.511719 140.988281 131.273438 141.375 131.886719 141.527344 C 134.363281 142.148438 135.867188 142.558594 136.757812 142.847656 C 137.902344 143.222656 138.058594 143.242188 138.035156 143.015625 Z M 123.246094 138.953125 C 123.246094 138.824219 123.0625 138.722656 122.835938 138.722656 C 122.484375 138.726562 122.476562 138.761719 122.777344 138.953125 C 123.21875 139.242188 123.246094 139.242188 123.246094 138.953125 Z M 133.445312 136.878906 C 133.671875 136.503906 132.667969 135.1875 132.152344 135.1875 C 131.742188 135.1875 131.699219 135.125 131.929688 134.851562 C 132.082031 134.664062 132.515625 134.445312 132.886719 134.363281 C 133.304688 134.273438 133.625 134.015625 133.71875 133.699219 C 133.800781 133.417969 134.371094 132.445312 134.984375 131.539062 C 135.597656 130.632812 136.320312 129.414062 136.589844 128.832031 C 138.9375 123.796875 139.519531 122.738281 140.523438 121.675781 C 142.328125 119.769531 142.980469 118.417969 143.714844 115.0625 C 143.933594 114.070312 144.246094 113.421875 144.757812 112.890625 C 145.160156 112.472656 145.769531 111.554688 146.113281 110.851562 C 146.457031 110.148438 147.015625 109.246094 147.351562 108.847656 C 147.6875 108.449219 148.261719 107.511719 148.628906 106.765625 C 148.996094 106.019531 149.964844 104.597656 150.78125 103.605469 C 153.117188 100.769531 154.324219 98.859375 155.878906 95.523438 C 156.300781 94.617188 156.890625 93.609375 157.1875 93.285156 C 157.828125 92.59375 158.847656 90.828125 159.089844 89.992188 C 159.1875 89.667969 159.699219 88.664062 160.230469 87.761719 C 160.765625 86.859375 161.589844 85.375 162.0625 84.464844 C 164.113281 80.539062 164.59375 79.664062 165.542969 78.101562 C 166.09375 77.195312 166.683594 76.296875 166.851562 76.101562 C 167.019531 75.90625 167.640625 74.8125 168.238281 73.671875 C 168.832031 72.527344 169.488281 71.339844 169.691406 71.03125 C 170.378906 69.972656 169.886719 69.820312 168.96875 70.804688 C 168.011719 71.832031 165.78125 75.085938 165.78125 75.457031 C 165.78125 75.582031 165.386719 76.335938 164.902344 77.125 C 164.417969 77.914062 163.859375 78.933594 163.664062 79.390625 C 163.46875 79.847656 162.820312 80.964844 162.226562 81.871094 C 161.628906 82.777344 160.945312 83.886719 160.699219 84.34375 C 160.300781 85.089844 157.679688 88.519531 157.273438 88.824219 C 157.179688 88.890625 156.933594 89.367188 156.71875 89.882812 C 155.871094 91.933594 155.183594 93.234375 154.738281 93.640625 C 154.480469 93.875 154.269531 94.210938 154.269531 94.386719 C 154.269531 94.558594 153.898438 95.230469 153.445312 95.875 C 152.992188 96.519531 152.621094 97.097656 152.621094 97.160156 C 152.621094 97.417969 150.246094 101.28125 149.355469 102.464844 C 148.824219 103.171875 148.390625 103.921875 148.390625 104.136719 C 148.390625 104.347656 148.0625 104.933594 147.660156 105.4375 C 147.257812 105.941406 146.578125 106.882812 146.144531 107.527344 C 145.714844 108.175781 145.035156 109.164062 144.636719 109.722656 C 144.238281 110.285156 143.730469 111.097656 143.507812 111.535156 C 143.285156 111.96875 142.445312 113.289062 141.636719 114.464844 C 140.828125 115.640625 140.167969 116.6875 140.167969 116.789062 C 140.167969 117.019531 137.058594 121.824219 135.425781 124.113281 C 134.738281 125.074219 133.9375 126.347656 133.644531 126.9375 C 132.746094 128.753906 131.339844 130.953125 130.863281 131.277344 C 130.617188 131.449219 129.78125 131.660156 129.003906 131.746094 C 128.230469 131.832031 127.328125 132.09375 127.007812 132.328125 C 126.050781 133.019531 125.320312 133.113281 124.78125 132.605469 C 124.429688 132.277344 123.808594 132.121094 122.425781 132.015625 L 120.542969 131.871094 L 121.367188 132.324219 C 121.820312 132.570312 122.71875 132.847656 123.363281 132.941406 C 124.011719 133.035156 124.855469 133.25 125.242188 133.417969 C 126.949219 134.160156 127.972656 134.460938 129.292969 134.613281 C 131.066406 134.8125 131.441406 135.011719 131.019531 135.523438 C 130.8125 135.769531 130.507812 135.84375 130.09375 135.746094 C 128.75 135.4375 127.078125 134.894531 126.183594 134.480469 C 125.667969 134.238281 124.511719 133.914062 123.617188 133.761719 C 122.71875 133.605469 121.421875 133.226562 120.730469 132.921875 C 120.039062 132.613281 119.230469 132.363281 118.933594 132.363281 C 118.636719 132.363281 117.359375 132 116.09375 131.550781 C 114.421875 130.960938 113.09375 130.671875 111.238281 130.5 C 109.832031 130.367188 108.367188 130.097656 107.984375 129.898438 C 107.601562 129.703125 107.011719 129.539062 106.675781 129.539062 C 106.335938 129.539062 105.835938 129.417969 105.566406 129.273438 C 105.292969 129.128906 103.988281 128.714844 102.660156 128.355469 C 101.335938 127.996094 99.582031 127.378906 98.765625 126.980469 C 97.945312 126.582031 96.855469 126.160156 96.339844 126.039062 C 93.847656 125.464844 92.515625 125.019531 91.871094 124.535156 C 91.285156 124.09375 90.894531 124.011719 89.523438 124.042969 C 87.921875 124.078125 85.632812 124.636719 84.960938 125.160156 C 84.621094 125.425781 83.53125 127.707031 83.53125 128.148438 C 83.53125 128.285156 84.140625 127.753906 84.886719 126.964844 C 85.765625 126.039062 86.433594 125.539062 86.777344 125.539062 C 87.066406 125.539062 87.566406 125.367188 87.886719 125.15625 C 88.417969 124.808594 88.527344 124.808594 89.265625 125.15625 C 89.703125 125.367188 90.257812 125.539062 90.492188 125.539062 C 90.730469 125.539062 91.453125 125.742188 92.101562 125.992188 C 92.753906 126.242188 94.183594 126.777344 95.28125 127.183594 C 96.378906 127.585938 97.59375 128.085938 97.984375 128.292969 C 98.371094 128.5 99.003906 128.832031 99.390625 129.03125 C 99.773438 129.230469 100.832031 129.535156 101.738281 129.710938 C 102.644531 129.886719 103.863281 130.125 104.445312 130.242188 C 105.027344 130.359375 105.949219 130.457031 106.496094 130.464844 C 107.039062 130.472656 107.832031 130.628906 108.257812 130.8125 C 108.679688 130.992188 109.714844 131.324219 110.554688 131.542969 C 112.183594 131.96875 116.089844 133.230469 117.839844 133.894531 C 118.449219 134.125 120.351562 134.417969 122.304688 134.582031 C 125.5625 134.855469 126.410156 135.066406 127.273438 135.820312 C 127.488281 136.007812 128.757812 136.347656 130.09375 136.582031 C 133.058594 137.101562 133.292969 137.125 133.441406 136.878906 Z M 134.875 135.050781 C 135.46875 133.796875 135.195312 133.628906 134.324219 134.710938 C 133.855469 135.296875 133.601562 135.828125 133.6875 136.050781 C 133.875 136.546875 134.355469 136.140625 134.875 135.050781 Z M 86.996094 133.636719 C 86.773438 133.414062 86.324219 133.777344 86.492188 134.046875 C 86.589844 134.207031 86.722656 134.203125 86.890625 134.035156 C 87.027344 133.898438 87.078125 133.71875 86.996094 133.636719 Z M 107.265625 134.019531 C 107.265625 133.765625 105.109375 133.070312 104.320312 133.070312 C 104.042969 133.070312 103.113281 132.699219 102.261719 132.246094 C 100.710938 131.421875 100.136719 131.289062 99.386719 131.574219 C 98.851562 131.78125 101.332031 132.949219 102.800781 133.1875 C 103.382812 133.28125 103.964844 133.4375 104.09375 133.535156 C 104.855469 134.109375 107.265625 134.480469 107.265625 134.019531 Z M 110.558594 133.546875 C 110.558594 132.953125 107.488281 132.050781 107.175781 132.554688 C 107.097656 132.6875 107.425781 133 107.910156 133.253906 C 108.847656 133.742188 110.558594 133.929688 110.558594 133.546875 Z M 105.738281 132.128906 C 105.246094 131.582031 105.535156 131.519531 106.417969 131.976562 C 107.089844 132.324219 108.277344 132.21875 108.144531 131.824219 C 108.007812 131.410156 106.257812 130.917969 105.449219 131.066406 C 105.03125 131.144531 104.492188 131.101562 104.253906 130.972656 C 104.015625 130.84375 102.71875 130.515625 101.371094 130.242188 C 100.027344 129.964844 98.765625 129.601562 98.570312 129.429688 C 98.089844 129 92.882812 127.066406 91.285156 126.722656 C 90.574219 126.570312 89.648438 126.265625 89.226562 126.050781 C 88.601562 125.734375 88.375 125.714844 87.996094 125.953125 C 87.742188 126.113281 87.394531 126.242188 87.222656 126.242188 C 86.730469 126.242188 84.941406 127.496094 84.941406 127.839844 C 84.941406 128.179688 85.324219 128.109375 86.789062 127.507812 C 87.808594 127.09375 88.441406 127.097656 89.488281 127.539062 C 89.953125 127.730469 90.738281 127.890625 91.234375 127.890625 C 91.824219 127.890625 92.40625 128.09375 92.929688 128.480469 C 93.371094 128.804688 93.921875 129.066406 94.160156 129.066406 C 94.398438 129.066406 95.460938 129.402344 96.523438 129.8125 C 97.585938 130.222656 99.140625 130.625 99.980469 130.699219 C 100.992188 130.792969 101.820312 131.03125 102.421875 131.40625 C 103.523438 132.085938 104.832031 132.574219 105.597656 132.589844 C 106.148438 132.597656 106.152344 132.585938 105.738281 132.128906 Z M 73.425781 131.703125 C 73.425781 131.066406 72.949219 130.714844 72.085938 130.714844 C 71.078125 130.714844 71.070312 131.21875 72.074219 131.71875 C 73.082031 132.21875 73.425781 132.21875 73.425781 131.703125 Z M 136.636719 131.082031 C 136.632812 130.945312 136.472656 131.039062 136.28125 131.289062 C 136.09375 131.542969 135.941406 131.859375 135.945312 131.996094 C 135.949219 132.132812 136.109375 132.039062 136.296875 131.789062 C 136.488281 131.539062 136.640625 131.21875 136.636719 131.082031 Z M 126.578125 131.304688 C 127.136719 130.832031 127.535156 130.714844 128.5625 130.714844 C 129.6875 130.714844 129.929688 130.625 130.566406 129.976562 C 130.960938 129.570312 131.691406 128.394531 132.1875 127.367188 C 132.683594 126.339844 133.386719 125.113281 133.75 124.644531 C 134.957031 123.085938 140.964844 113.800781 141.859375 112.113281 C 142.167969 111.527344 143.105469 110.074219 143.941406 108.886719 C 145.804688 106.230469 148.234375 102.433594 149.332031 100.46875 C 149.785156 99.660156 150.472656 98.5 150.859375 97.894531 C 152.914062 94.6875 153.523438 93.644531 154.78125 91.167969 C 155.539062 89.679688 156.5625 87.984375 157.054688 87.402344 C 158.289062 85.933594 161.308594 81.183594 162.847656 78.285156 C 164.617188 74.941406 166.269531 72.253906 167.457031 70.789062 C 169.433594 68.347656 170.445312 66.734375 170.84375 65.402344 C 171.289062 63.910156 171.0625 63.65625 169.183594 63.535156 C 166.824219 63.386719 165.488281 63.109375 164.136719 62.492188 C 163.425781 62.167969 161.953125 61.757812 160.863281 61.578125 C 159.773438 61.402344 158.769531 61.167969 158.632812 61.054688 C 158.132812 60.652344 155.285156 59.671875 153.445312 59.269531 C 152.410156 59.042969 150.960938 58.660156 150.222656 58.417969 C 149.480469 58.175781 148.5625 57.976562 148.179688 57.976562 C 147.796875 57.976562 146.722656 57.703125 145.796875 57.367188 C 144.875 57.035156 143.625 56.621094 143.023438 56.449219 C 141.90625 56.132812 138.964844 54.996094 137.164062 54.191406 C 136.613281 53.941406 135.695312 53.738281 135.125 53.738281 C 134.554688 53.738281 133.808594 53.632812 133.46875 53.503906 C 132.394531 53.09375 130.421875 53.128906 129.503906 53.574219 C 129.039062 53.800781 128.261719 54.15625 127.773438 54.363281 C 126.371094 54.960938 125.980469 55.191406 124.097656 56.527344 C 123.121094 57.222656 122.261719 57.960938 122.183594 58.175781 C 122.109375 58.390625 121.585938 58.933594 121.023438 59.386719 C 120.425781 59.871094 119.84375 60.609375 119.625 61.167969 C 119.417969 61.691406 119.089844 62.328125 118.898438 62.578125 C 118.109375 63.605469 117.4375 64.75 117.296875 65.289062 C 117.21875 65.605469 116.773438 66.445312 116.304688 67.15625 C 115.839844 67.867188 115.152344 69.050781 114.777344 69.789062 C 114.398438 70.523438 113.984375 71.191406 113.855469 71.269531 C 113.722656 71.351562 113.238281 72.207031 112.777344 73.171875 C 112.3125 74.136719 111.851562 74.925781 111.753906 74.925781 C 111.441406 74.925781 110.148438 77.128906 109.96875 77.960938 C 109.78125 78.835938 108.703125 80.785156 107.824219 81.828125 C 107.519531 82.195312 107.265625 82.589844 107.265625 82.707031 C 107.265625 82.824219 106.75 83.691406 106.121094 84.628906 C 105.035156 86.246094 104.167969 87.710938 103.011719 89.871094 C 102.734375 90.390625 102.3125 91.003906 102.070312 91.234375 C 101.828125 91.464844 101.5625 91.921875 101.480469 92.253906 C 101.398438 92.585938 101.085938 93.097656 100.789062 93.398438 C 100.492188 93.695312 100.132812 94.375 99.988281 94.90625 C 99.84375 95.441406 99.632812 95.875 99.515625 95.875 C 99.398438 95.875 99.164062 96.136719 98.996094 96.457031 C 98.828125 96.777344 98.371094 97.652344 97.984375 98.398438 C 97.597656 99.148438 96.886719 100.273438 96.398438 100.898438 C 95.914062 101.527344 95.515625 102.160156 95.515625 102.3125 C 95.515625 102.460938 95.207031 102.945312 94.832031 103.386719 C 94.453125 103.828125 93.867188 104.753906 93.53125 105.449219 C 92.894531 106.75 92.332031 107.632812 91.226562 109.082031 C 90.871094 109.546875 90.582031 110.027344 90.582031 110.152344 C 90.582031 110.429688 89.347656 112.167969 88.3125 113.34375 C 87.390625 114.394531 86.660156 115.777344 86.183594 117.390625 C 85.988281 118.050781 85.292969 119.382812 84.640625 120.355469 C 83.359375 122.261719 82.222656 124.542969 82.441406 124.761719 C 82.667969 124.984375 83.296875 124.335938 83.296875 123.878906 C 83.296875 123.417969 85.328125 121.5 86.46875 120.886719 C 86.945312 120.628906 87.78125 120.507812 89.066406 120.503906 C 91.003906 120.5 92.203125 120.816406 93.046875 121.550781 C 93.308594 121.773438 93.941406 122.175781 94.457031 122.445312 C 97.257812 123.894531 98.359375 124.304688 100.199219 124.574219 C 101.582031 124.777344 102.6875 125.121094 103.84375 125.707031 C 104.757812 126.167969 106.351562 126.785156 107.382812 127.078125 C 109.527344 127.6875 110.835938 128.125 113.457031 129.09375 C 114.46875 129.46875 115.484375 129.773438 115.71875 129.773438 C 115.949219 129.773438 116.601562 129.980469 117.167969 130.230469 C 117.792969 130.507812 118.828125 130.707031 119.804688 130.738281 C 120.6875 130.769531 121.957031 130.925781 122.625 131.089844 C 123.289062 131.253906 124.257812 131.488281 124.773438 131.609375 C 125.292969 131.734375 125.753906 131.847656 125.796875 131.863281 C 125.84375 131.878906 126.195312 131.628906 126.578125 131.304688 Z M 98.101562 131.460938 C 98.101562 131.152344 96.007812 130.277344 94.410156 129.914062 C 93.605469 129.734375 92.640625 129.363281 92.257812 129.089844 C 91.859375 128.808594 91.203125 128.597656 90.710938 128.597656 C 90.242188 128.597656 89.4375 128.382812 88.925781 128.121094 C 88.03125 127.664062 87.949219 127.660156 86.808594 128.035156 C 85.957031 128.3125 85.644531 128.53125 85.695312 128.804688 C 85.753906 129.105469 86.082031 129.1875 87.292969 129.195312 C 88.132812 129.199219 89.1875 129.347656 89.640625 129.523438 C 91.5 130.242188 92.195312 130.445312 93.988281 130.792969 C 95.023438 130.992188 96.238281 131.257812 96.691406 131.382812 C 97.769531 131.679688 98.101562 131.699219 98.101562 131.460938 Z M 136.878906 130.480469 C 136.878906 130.351562 136.832031 130.246094 136.773438 130.246094 C 136.71875 130.246094 136.605469 130.351562 136.523438 130.480469 C 136.445312 130.609375 136.492188 130.714844 136.628906 130.714844 C 136.765625 130.714844 136.878906 130.609375 136.878906 130.480469 Z M 112.613281 129.71875 C 112.5625 129.558594 112.0625 129.351562 111.503906 129.253906 C 110.945312 129.160156 109.839844 128.773438 109.042969 128.402344 C 108.242188 128.027344 107.085938 127.644531 106.46875 127.554688 C 105.226562 127.367188 103.363281 126.632812 102.773438 126.101562 C 102.566406 125.910156 101.234375 125.558594 99.820312 125.3125 C 97.238281 124.871094 95.730469 124.386719 95.054688 123.785156 C 94 122.851562 89.835938 121.0625 88.703125 121.0625 C 87.761719 121.0625 84.910156 122.792969 84.089844 123.863281 C 83.652344 124.433594 83.296875 124.976562 83.296875 125.070312 C 83.296875 125.167969 83.085938 125.300781 82.824219 125.371094 C 82.46875 125.464844 82.355469 125.691406 82.355469 126.324219 C 82.355469 127.964844 83.265625 127.636719 83.882812 125.769531 C 84.292969 124.539062 85.375 123.652344 86.472656 123.652344 C 86.78125 123.652344 87.277344 123.558594 87.574219 123.445312 C 87.871094 123.328125 88.667969 123.109375 89.34375 122.953125 L 90.578125 122.667969 L 91.78125 123.554688 C 93.097656 124.519531 95.140625 125.300781 96.359375 125.300781 C 97.171875 125.300781 98.359375 125.671875 98.566406 125.988281 C 98.910156 126.511719 102.878906 127.890625 104.050781 127.890625 C 104.335938 127.890625 104.964844 128.101562 105.449219 128.363281 C 105.929688 128.621094 106.46875 128.832031 106.648438 128.832031 C 106.824219 128.832031 107.75 129.09375 108.703125 129.410156 C 110.597656 130.039062 112.777344 130.210938 112.613281 129.71875 Z M 138.242188 128.003906 C 138.171875 127.929688 138.039062 128.058594 137.953125 128.292969 C 137.824219 128.628906 137.851562 128.65625 138.082031 128.425781 C 138.242188 128.265625 138.316406 128.074219 138.242188 128.003906 Z M 69.261719 127.265625 C 69.101562 127.199219 68.785156 127.195312 68.554688 127.257812 C 68.328125 127.316406 68.457031 127.371094 68.84375 127.375 C 69.230469 127.378906 69.417969 127.332031 69.261719 127.265625 Z M 80.289062 126.371094 C 80.179688 125.402344 79.132812 123.972656 78.285156 123.636719 C 76.945312 123.105469 74.851562 121.722656 74.710938 121.269531 C 74.632812 121.027344 74.476562 120.828125 74.367188 120.828125 C 74.253906 120.828125 73.683594 120.414062 73.097656 119.910156 L 72.039062 118.988281 L 68.679688 119.0625 C 66.832031 119.105469 63.46875 119.222656 61.207031 119.320312 C 58.945312 119.417969 56.828125 119.492188 56.507812 119.480469 C 56.183594 119.46875 54.542969 119.464844 52.863281 119.46875 C 51.183594 119.476562 49.066406 119.453125 48.164062 119.417969 C 45.832031 119.335938 41.425781 119.34375 39.351562 119.4375 C 37.347656 119.523438 35.015625 119.117188 33.496094 118.40625 L 32.460938 117.925781 L 31.945312 118.527344 C 31.660156 118.855469 31.191406 119.253906 30.902344 119.410156 C 30.542969 119.601562 30.414062 119.839844 30.496094 120.152344 C 30.566406 120.417969 30.441406 120.78125 30.199219 121.015625 C 29.726562 121.472656 29.464844 122.308594 29.6875 122.664062 C 29.867188 122.957031 42.246094 122.621094 44.402344 122.265625 C 45.179688 122.136719 47.761719 121.96875 50.140625 121.890625 C 52.519531 121.8125 54.632812 121.660156 54.839844 121.554688 C 55.046875 121.445312 56.535156 121.296875 58.152344 121.222656 C 59.765625 121.144531 62.304688 120.972656 63.792969 120.835938 C 68.296875 120.417969 71.726562 121.199219 74.109375 123.175781 C 74.574219 123.558594 75.664062 124.238281 76.527344 124.679688 C 77.390625 125.125 78.496094 125.871094 78.976562 126.34375 C 79.972656 127.308594 80.394531 127.316406 80.289062 126.371094 Z M 139.914062 124.980469 C 140.503906 124.019531 140.609375 123.109375 140.0625 123.660156 C 139.597656 124.128906 138.933594 125.773438 139.207031 125.773438 C 139.328125 125.773438 139.644531 125.414062 139.914062 124.980469 Z M 146.277344 113.832031 C 146.277344 113.652344 146.441406 113.195312 146.636719 112.8125 C 146.835938 112.429688 146.914062 112.117188 146.8125 112.117188 C 146.570312 112.117188 145.339844 113.675781 145.339844 113.984375 C 145.339844 114.117188 145.136719 114.558594 144.886719 114.96875 C 144.640625 115.378906 144.496094 115.863281 144.566406 116.046875 C 144.710938 116.425781 146.277344 114.394531 146.277344 113.832031 Z M 167.902344 81.363281 C 168.289062 80.570312 168.605469 79.84375 168.605469 79.75 C 168.605469 79.660156 168.753906 79.25 168.941406 78.84375 C 169.125 78.4375 169.558594 77.359375 169.898438 76.453125 C 170.242188 75.546875 170.769531 74.171875 171.066406 73.394531 C 171.367188 72.617188 171.570312 71.933594 171.511719 71.878906 C 171.269531 71.625 170.730469 72.59375 170.152344 74.335938 C 169.804688 75.371094 169.320312 76.5 169.074219 76.84375 C 168.828125 77.1875 168.550781 77.769531 168.457031 78.136719 C 168.289062 78.804688 167.574219 80.53125 166.707031 82.355469 C 166.457031 82.882812 166.257812 83.464844 166.257812 83.648438 C 166.265625 84.171875 167.105469 83.003906 167.902344 81.363281 Z M 79.949219 122.445312 C 79.460938 122.050781 79.066406 121.578125 79.066406 121.394531 C 79.066406 120.886719 79.398438 121 79.996094 121.710938 C 80.296875 122.066406 80.703125 122.542969 80.898438 122.769531 C 81.460938 123.421875 80.914062 123.234375 79.949219 122.445312 Z M 80.945312 120.949219 C 80.320312 120.277344 80.484375 119.84375 81.140625 120.4375 C 81.375 120.652344 81.695312 120.828125 81.847656 120.828125 C 81.996094 120.828125 82.121094 120.988281 82.121094 121.183594 C 82.121094 121.71875 81.5625 121.605469 80.945312 120.949219 Z M 82.035156 118.886719 C 81.605469 117.871094 81.984375 117.4375 82.597656 118.238281 C 82.847656 118.5625 83.054688 119.011719 83.054688 119.238281 C 83.066406 119.933594 82.375 119.695312 82.035156 118.886719 Z M 83.234375 117.15625 C 83.15625 117.078125 83.152344 116.867188 83.222656 116.679688 C 83.320312 116.421875 83.425781 116.40625 83.675781 116.613281 C 83.855469 116.761719 84 116.976562 84 117.089844 C 84 117.324219 83.449219 117.371094 83.234375 117.15625 Z M 84.238281 115.550781 C 84.238281 115.367188 84.171875 115.050781 84.09375 114.84375 C 84.003906 114.609375 84.078125 114.472656 84.304688 114.472656 C 84.660156 114.472656 84.941406 114.945312 84.941406 115.550781 C 84.941406 115.734375 84.78125 115.886719 84.589844 115.886719 C 84.394531 115.886719 84.238281 115.734375 84.238281 115.550781 Z M 85.65625 113.3125 C 85.332031 112.710938 85.347656 112.589844 85.738281 112.589844 C 86.046875 112.589844 86.351562 113.066406 86.351562 113.550781 C 86.351562 113.933594 85.90625 113.78125 85.65625 113.3125 Z M 86.683594 111.300781 C 86.597656 110.960938 86.605469 110.609375 86.695312 110.519531 C 86.894531 110.320312 87.5625 111.183594 87.457031 111.507812 C 87.289062 112.007812 86.832031 111.882812 86.683594 111.300781 Z M 87.902344 109.628906 C 87.699219 109.089844 87.730469 108.351562 87.957031 108.351562 C 88.164062 108.351562 88.703125 109.382812 88.703125 109.777344 C 88.703125 110.148438 88.058594 110.027344 87.902344 109.628906 Z M 88.9375 107.292969 C 88.9375 106.324219 89.222656 106.226562 89.605469 107.070312 C 89.984375 107.910156 89.945312 108.117188 89.40625 108.117188 C 89.027344 108.117188 88.9375 107.960938 88.9375 107.292969 Z M 90.355469 105.308594 C 90.035156 104.707031 90.046875 104.585938 90.4375 104.585938 C 90.746094 104.585938 91.050781 105.0625 91.050781 105.546875 C 91.050781 105.929688 90.605469 105.777344 90.355469 105.308594 Z M 92.542969 100.691406 C 92.464844 100.492188 92.453125 100.277344 92.515625 100.214844 C 92.726562 100.007812 93.402344 100.398438 93.402344 100.726562 C 93.402344 101.171875 92.714844 101.144531 92.542969 100.691406 Z M 94.035156 99.019531 C 93.796875 98.785156 93.835938 97.757812 94.078125 97.757812 C 94.261719 97.757812 94.351562 97.953125 94.558594 98.8125 C 94.625 99.09375 94.253906 99.242188 94.035156 99.019531 Z M 95.84375 96.871094 C 95.453125 96.617188 95.226562 95.703125 95.507812 95.527344 C 95.640625 95.445312 95.863281 95.664062 95.996094 96.015625 C 96.277344 96.757812 96.214844 97.109375 95.84375 96.871094 Z M 97.21875 94.46875 C 96.617188 93.972656 96.527344 93.523438 97.035156 93.523438 C 97.398438 93.523438 97.949219 94.34375 97.824219 94.695312 C 97.78125 94.808594 97.511719 94.703125 97.21875 94.46875 Z M 98.808594 91.523438 C 98.648438 91.332031 98.585938 91.003906 98.664062 90.792969 C 98.785156 90.480469 98.878906 90.464844 99.164062 90.699219 C 99.550781 91.023438 99.621094 91.542969 99.304688 91.742188 C 99.1875 91.8125 98.964844 91.714844 98.808594 91.523438 Z M 100.0625 88.921875 C 99.988281 88.722656 99.976562 88.507812 100.035156 88.445312 C 100.246094 88.234375 100.921875 88.625 100.921875 88.957031 C 100.921875 89.402344 100.238281 89.375 100.0625 88.921875 Z M 101.472656 86.332031 C 101.398438 86.132812 101.390625 85.914062 101.460938 85.84375 C 101.667969 85.636719 102.59375 86.230469 102.441406 86.472656 C 102.226562 86.820312 101.628906 86.734375 101.472656 86.332031 Z M 102.800781 83.636719 C 102.800781 83.375 102.957031 83.164062 103.15625 83.164062 C 103.351562 83.164062 103.507812 83.375 103.507812 83.636719 C 103.507812 83.898438 103.351562 84.105469 103.15625 84.105469 C 102.957031 84.105469 102.800781 83.898438 102.800781 83.636719 Z M 104.300781 81.171875 C 104.21875 80.960938 104.226562 80.71875 104.3125 80.632812 C 104.511719 80.433594 105.285156 80.90625 105.222656 81.1875 C 105.140625 81.570312 104.449219 81.558594 104.300781 81.171875 Z M 106.621094 78.769531 C 106.179688 78.59375 106.234375 76.808594 106.679688 76.808594 C 106.941406 76.808594 107.03125 77.082031 107.03125 77.867188 C 107.03125 78.449219 107.003906 78.917969 106.972656 78.910156 C 106.941406 78.898438 106.78125 78.835938 106.621094 78.769531 Z M 108.40625 75.632812 C 108.386719 75.113281 108.359375 74.585938 108.347656 74.453125 C 108.335938 74.324219 108.421875 74.191406 108.542969 74.160156 C 108.84375 74.078125 109.183594 75.394531 109.027344 76.042969 C 108.824219 76.902344 108.445312 76.648438 108.40625 75.632812 Z M 110.234375 73.011719 C 110.011719 71.898438 110.058594 71.34375 110.363281 71.445312 C 110.691406 71.558594 110.921875 73.75 110.601562 73.75 C 110.480469 73.75 110.316406 73.417969 110.234375 73.011719 Z M 112.078125 69.695312 C 111.871094 69.160156 112.023438 68.511719 112.378906 68.394531 C 112.726562 68.277344 112.773438 69.222656 112.445312 69.738281 C 112.257812 70.039062 112.207031 70.03125 112.078125 69.695312 Z M 113.421875 66.410156 C 113.503906 65.585938 114.082031 65.175781 114.082031 65.941406 C 114.082031 66.585938 113.84375 67.15625 113.574219 67.15625 C 113.449219 67.15625 113.382812 66.820312 113.421875 66.410156 Z M 114.789062 63.15625 C 114.789062 63.027344 114.894531 62.917969 115.023438 62.917969 C 115.152344 62.917969 115.257812 63.027344 115.257812 63.15625 C 115.257812 63.285156 115.152344 63.390625 115.023438 63.390625 C 114.894531 63.390625 114.789062 63.285156 114.789062 63.15625 Z M 114.789062 63.15625 " fill-opacity="1" fill-rule="nonzero"/></g></svg>